<svg xmlns="http://www.w3.org/2000/svg" width="34" height="34" viewBox="0 0 34 34" fill="none">
    <g filter="url(#filter0_d_20_5806)">
        <circle cx="17" cy="15" r="13" fill="white"/>
    </g>
    <path fill-rule="evenodd" clip-rule="evenodd"
          d="M21.1026 23H13.9945L19.7069 16.5729C20.0695 16.1651 20.6882 16.1126 21.1141 16.4539L24.9754 19.5424C24.8761 20.4146 24.4847 21.2318 23.8587 21.8587C23.1276 22.5897 22.1364 23 21.1026 23ZM9 19.1026V17.0513L12.1819 14.6652C12.575 14.3698 13.1231 14.3961 13.4874 14.7268L16.9245 17.8513L12.3781 22.9655C11.5362 22.8523 10.7493 22.4658 10.1413 21.8587C9.41026 21.1276 9 20.1364 9 19.1026ZM24.5897 10.2673C24.7063 10.2501 24.8219 10.2189 24.9319 10.1737C24.977 10.4109 25 10.6529 25 10.8974V17.9867L21.8829 15.4931C20.9458 14.7424 19.5846 14.8581 18.7871 15.7557L17.7417 16.9315L14.3153 13.816C13.5145 13.0882 12.3091 13.0308 11.4435 13.6806L9 15.5128V10.8974C9 9.86359 9.41026 8.87241 10.1413 8.14133C10.8724 7.41026 11.8636 7 12.8974 7H21.1026C21.3019 7 21.4989 7.01559 21.6933 7.04513L20.9081 7.83118C20.3477 8.39159 20.3477 9.30072 20.9081 9.86113C21.1354 10.0892 21.4217 10.2246 21.7179 10.2673V11.3077C21.7179 12.1003 22.3612 12.7436 23.1538 12.7436C23.9465 12.7436 24.5897 12.1003 24.5897 11.3077V10.2673ZM16.1795 10.4872C16.1795 9.80779 15.6281 9.25641 14.9487 9.25641C14.2693 9.25641 13.7179 9.80779 13.7179 10.4872C13.7179 11.1666 14.2693 11.7179 14.9487 11.7179C15.6281 11.7179 16.1795 11.1666 16.1795 10.4872ZM21.4879 8.41108L22.7099 7.18904C22.8219 7.07254 22.9793 7 23.1535 7C23.3286 7 23.4866 7.0732 23.5987 7.19064L24.8191 8.41108C25.0596 8.65067 25.0596 9.04123 24.8191 9.28082C24.5796 9.52123 24.189 9.52123 23.9494 9.28082L23.7689 9.10053V11.3077C23.7689 11.6474 23.4932 11.9231 23.1535 11.9231C22.8138 11.9231 22.5382 11.6474 22.5382 11.3077V9.10046L22.3576 9.28082C22.118 9.52123 21.7274 9.52123 21.4879 9.28082C21.2474 9.04123 21.2474 8.65067 21.4879 8.41108Z"
          fill="#EA3047"/>
    <defs>
        <filter id="filter0_d_20_5806" x="0" y="0" width="34" height="34" filterUnits="userSpaceOnUse"
                color-interpolation-filters="sRGB">
            <feFlood flood-opacity="0" result="BackgroundImageFix"/>
            <feColorMatrix in="SourceAlpha" type="matrix" values="0 0 0 0 0 0 0 0 0 0 0 0 0 0 0 0 0 0 127 0"
                           result="hardAlpha"/>
            <feOffset dy="2"/>
            <feGaussianBlur stdDeviation="2"/>
            <feComposite in2="hardAlpha" operator="out"/>
            <feColorMatrix type="matrix" values="0 0 0 0 0 0 0 0 0 0 0 0 0 0 0 0 0 0 0.08 0"/>
            <feBlend mode="normal" in2="BackgroundImageFix" result="effect1_dropShadow_20_5806"/>
            <feBlend mode="normal" in="SourceGraphic" in2="effect1_dropShadow_20_5806" result="shape"/>
        </filter>
    </defs>
</svg>