<svg width="24" height="24" viewBox="0 0 24 24" fill="none" xmlns="http://www.w3.org/2000/svg">
    <path d="M14.1991 12.0002L23.5444 2.65458C24.1525 2.04669 24.1525 1.06381 23.5444 0.455919C22.9365 -0.151973 21.9536 -0.151973 21.3457 0.455919L12.0001 9.80152L2.65479 0.455919C2.04662 -0.151973 1.06403 -0.151973 0.456133 0.455919C-0.152044 1.06381 -0.152044 2.04669 0.456133 2.65458L9.80144 12.0002L0.456133 21.3458C-0.152044 21.9537 -0.152044 22.9365 0.456133 23.5444C0.759082 23.8477 1.15742 24 1.55546 24C1.95351 24 2.35156 23.8477 2.65479 23.5444L12.0001 14.1988L21.3457 23.5444C21.6489 23.8477 22.047 24 22.445 24C22.8431 24 23.2411 23.8477 23.5444 23.5444C24.1525 22.9365 24.1525 21.9537 23.5444 21.3458L14.1991 12.0002Z"
          fill="currentColor"/>
</svg>
