<svg xmlns="http://www.w3.org/2000/svg" width="16" height="15" viewBox="0 0 16 15" fill="none">
    <path fill-rule="evenodd" clip-rule="evenodd"
          d="M0.0321837 7.35797C1.42938 4.37166 4.47095 2.30225 8 2.30225C11.529 2.30225 14.5706 4.37166 15.9678 7.35797C16.0107 7.45017 16.0107 7.55603 15.9678 7.64652C14.5706 10.6328 11.529 12.7022 8 12.7022C4.47097 12.7022 1.42938 10.6328 0.0321837 7.64652C-0.0107279 7.55432 -0.0107279 7.44846 0.0321837 7.35797ZM4.39371 7.5031C4.39371 9.48373 6.00719 11.0904 8 11.0904C9.9911 11.0904 11.6063 9.48373 11.6063 7.5031C11.6063 5.52247 9.99281 3.91577 8 3.91577C6.0089 3.91577 4.39371 5.52076 4.39371 7.5031ZM10.3087 7.50053C10.3087 8.76886 9.27507 9.79704 8.00005 9.79704C6.72502 9.79704 5.69141 8.76886 5.69141 7.50053C5.69141 6.23221 6.72502 5.20403 8.00005 5.20403C9.27507 5.20403 10.3087 6.23221 10.3087 7.50053Z"
          fill="currentColor"/>
    <path d="M14.6667 1.00049L1.33334 14.0005" stroke="currentColor" stroke-linecap="round"/>
</svg>