<svg xmlns="http://www.w3.org/2000/svg" width="79" height="81" viewBox="0 0 79 81" fill="none">
    <path d="M57.7599 68.7489L57.7578 68.7503C56.0171 69.9031 54.1573 70.8902 52.2217 71.7239L52.2179 71.7256C51.8221 71.9038 51.414 72.0696 51.0062 72.223L51.0035 72.224C46.8223 73.8524 42.2705 74.75 37.5 74.75C32.5754 74.75 27.8827 73.801 23.588 72.0575L23.5856 72.0565C23.1605 71.8891 22.756 71.7246 22.3521 71.5232L22.3522 71.5229L22.3396 71.5175C20.5601 70.7493 18.8686 69.8141 17.2521 68.7621L17.2519 68.7619C7.01985 62.1192 0.25 50.6044 0.25 37.5C0.25 16.9324 16.9324 0.25 37.5 0.25C58.0676 0.25 74.75 16.9324 74.75 37.5C74.75 50.5918 67.9929 62.1193 57.7599 68.7489Z"
          fill="white" stroke="#919191" stroke-width="0.5"/>
    <path d="M23.2746 35.7318C23.2875 35.7318 23.3004 35.7189 23.3004 35.7189C23.507 35.9125 23.7393 36.0158 24.0104 36.0287H24.062C24.2557 36.0287 24.4364 35.977 24.5784 35.8609C24.63 35.835 24.6675 35.7963 24.7075 35.7576C25.1606 35.2929 25.1722 34.3763 25.1464 32.9306C25.1335 32.5304 25.1335 31.9495 25.1606 31.7042C26.1016 30.749 26.4644 27.0183 26.4373 26.2309C26.4114 25.2886 27.5603 24.3075 28.1025 23.9331C29.2772 23.6621 30.2725 23.533 31.1619 23.533H31.1748C31.9506 23.533 32.556 23.6362 33.0982 23.7782C33.1498 23.7911 33.1886 23.8041 33.2402 23.817C33.5113 23.8944 33.7694 23.9719 34.0147 24.0622C35.0616 24.4108 36.2608 24.7077 37.8228 24.3333C39.2299 24.0106 40.7918 23.7782 42.2892 23.7008C42.328 23.7008 42.3796 23.7008 42.4312 23.6879C42.883 23.6621 43.3207 23.6492 43.7479 23.6492C45.4648 23.6492 46.8073 23.8557 47.5431 24.23C49.0147 24.9917 49.4407 28.5029 49.6085 29.8195L49.6356 30.0777C49.7518 30.9555 49.9441 31.3428 50.099 31.6526C50.1894 31.8462 50.2669 32.0011 50.3185 32.3109C50.2927 32.7757 50.2023 34.8927 50.8232 35.6156C50.8232 35.6285 50.8232 35.6285 50.8361 35.6414C51.004 35.8221 51.2363 35.9254 51.5074 35.9254H51.5216C51.6507 35.9125 51.7656 35.8867 51.8701 35.8221C51.9605 35.7963 52.0379 35.7318 52.1154 35.6414C52.3077 35.4478 52.451 35.1251 52.5788 34.7249C52.6692 34.4538 52.7608 34.144 52.8499 33.7954C53.0435 33.0596 53.263 32.2206 53.6128 31.4719C54.2195 30.1552 54.0646 28.3092 53.9614 27.0829C53.9484 26.8763 53.9226 26.6956 53.9226 26.5536C54.3757 26.1147 54.479 25.0046 54.4906 23.107C54.5164 20.8092 53.0577 18.8987 52.2445 18.0338C52.2445 18.008 52.2316 17.9951 52.2187 17.9822C52.2045 17.9564 52.1916 17.9177 52.1799 17.8789C51.9218 17.2851 51.3409 15.9297 48.6171 13.193C48.5784 13.1414 48.5268 13.0898 48.4751 13.051C48.4106 12.9736 48.346 12.909 48.2815 12.8445C46.1774 10.6758 43.3374 9.66895 39.3357 9.66895C37.2961 9.66895 35.192 9.91421 33.1524 10.1595L31.8744 10.3144C26.1959 10.5726 25.575 15.1552 25.5104 15.8522C25.3942 16.3428 25.3426 16.8204 25.3684 17.298C24.2595 17.5562 23.3546 18.2533 22.6576 19.3763C20.3985 23.0037 21.1214 30.1552 21.4958 31.1104C21.6262 31.4202 21.754 31.885 21.8972 32.4013C22.1554 33.2791 22.3749 34.0278 22.6201 34.6087C22.8267 35.0863 23.0332 35.4478 23.2798 35.693V35.7318H23.2746Z"
          fill="#919191"/>
    <path d="M57.8957 68.9592C56.1414 70.121 54.2683 71.115 52.3204 71.954C51.9705 70.3275 51.6995 69.1528 51.6995 69.1528C51.622 68.8043 51.2735 68.5848 50.9249 68.6623C50.5751 68.7397 50.3569 69.0883 50.4473 69.4368C50.4473 69.4368 50.7313 70.7148 51.0927 72.4575C46.8845 74.0969 42.3019 75.0005 37.4998 75.0005C32.5428 75.0005 27.8182 74.0453 23.4938 72.2897C23.6745 70.7664 23.8023 69.6692 23.8023 69.6692C23.8539 69.3077 23.61 68.985 23.2472 68.9463C22.8987 68.9076 22.576 69.1528 22.5243 69.5014C22.5243 69.5014 22.4069 70.4179 22.239 71.7475C20.4447 70.973 18.7408 70.0306 17.1143 68.9721C18.276 64.8284 19.9929 60.1296 22.0712 58.658C24.3574 57.0186 27.054 56.3215 28.4094 56.0633C28.2029 56.5151 27.9835 57.0057 27.8027 57.522C27.1444 59.3551 26.7558 61.5883 27.1947 64.0539C27.2334 64.2862 27.4013 64.4669 27.6207 64.5444C27.6865 64.5702 27.7382 64.596 27.8143 64.596C27.9822 64.596 28.2532 64.4928 29.1827 64.1959C30.5007 63.757 32.8746 62.9695 34.4495 62.621L36.5923 65.0737C36.7085 65.2027 36.8763 65.2802 37.057 65.2931H37.0828C37.2507 65.2931 37.4056 65.2286 37.5359 65.1124L40.1177 62.6339C41.6797 62.9566 44.0678 63.744 45.3845 64.1959C46.3139 64.4928 46.585 64.596 46.7528 64.596C46.8316 64.596 46.8819 64.5702 46.9464 64.5444C47.1659 64.4669 47.3337 64.2862 47.3724 64.0539C47.8242 61.5366 47.3983 59.2518 46.6999 57.38C46.5075 56.8508 46.2868 56.3473 46.0544 55.8955C47.7326 56.2699 52.0441 57.3929 53.9159 59.2776C55.4172 61.0203 57.0179 65.8224 57.8957 68.9592Z"
          fill="#919191"/>
    <path d="M27.1987 64.0538C27.2374 64.2862 27.4052 64.4669 27.6247 64.5444C27.6905 64.5702 27.7422 64.596 27.8183 64.596C27.9861 64.596 28.2572 64.4927 29.1867 64.1958C30.5046 63.7569 32.8786 62.9695 34.4534 62.6209L34.2856 62.4273C34.2598 62.4015 34.234 62.3757 34.2082 62.3499L33.4982 61.5366L30.1677 57.7285C30.0645 57.6123 30.0128 57.4574 30.0128 57.3025V55.8051V53.417C29.5739 54.0108 28.9659 54.9144 28.4121 56.0633C28.2056 56.5151 27.9861 57.0056 27.8054 57.522C27.1471 59.355 26.7598 61.5882 27.1987 64.0538Z"
          fill="#F3F3F3"/>
    <path d="M44.8321 57.8312C44.8321 58.012 44.7546 58.1798 44.6397 58.296L41.2305 61.5748L40.1216 62.6333C41.6836 62.956 44.0717 63.7435 45.3884 64.1953C46.3179 64.4922 46.5889 64.5954 46.7568 64.5954C46.8355 64.5954 46.8858 64.5696 46.9504 64.5438C47.1698 64.4664 47.3377 64.2856 47.3764 64.0533C47.8282 61.5361 47.4022 59.2512 46.7038 57.3794C46.5115 56.8502 46.2908 56.3467 46.0584 55.8949C45.6582 55.0688 45.2206 54.3588 44.8321 53.8037V56.3209V57.8312Z"
          fill="#F3F3F3"/>
    <path d="M30.0129 57.3022C30.0129 57.4571 30.0645 57.612 30.1678 57.7282L33.4982 61.5363L34.2082 62.3495L34.2857 62.427L34.4535 62.6206L36.5964 65.0733C36.7125 65.2024 36.8803 65.2798 37.0611 65.2927H37.0869C37.2547 65.2927 37.4096 65.2282 37.54 65.112L40.1217 62.6335L41.2306 61.575L44.6398 58.2962C44.756 58.18 44.8322 58.0122 44.8322 57.8314V56.3211V53.8039V52.8487C44.4204 53.0681 43.9944 53.2746 43.5413 53.4554C41.8386 54.1912 39.9539 54.6301 38.0292 54.6688H37.7194C35.3313 54.6688 33.1497 53.9846 31.2921 52.939C31.0211 52.7841 30.7487 52.6292 30.4918 52.4614C30.324 52.3581 30.1691 52.2549 30.0142 52.1387V53.4166V55.8048V57.3022H30.0129Z"
          fill="#DCDBDB"/>
    <path d="M52.0999 36.0661C52.0741 38.1832 51.9321 39.8226 51.6236 41.4104C51.5848 41.6556 51.5203 41.9138 51.4687 42.1591C51.4299 42.3398 51.3783 42.5334 51.3267 42.7142H51.4816C52.2303 42.7142 52.837 42.5205 53.3146 42.1204C54.244 41.3458 54.4377 39.9775 54.4893 38.7383C54.5797 36.8923 53.4695 35.5111 52.5788 34.7236C52.4497 35.1238 52.3077 35.4465 52.1154 35.6402C52.1128 35.7822 52.1128 35.9241 52.0999 36.0661Z"
          fill="#DCDBDB"/>
    <path d="M23.8553 40.9853C23.5468 38.9328 23.3777 36.9449 23.2757 35.7315V35.6927C23.0304 35.4475 22.8226 35.086 22.6161 34.6084C21.7783 35.3571 20.499 36.8545 20.499 38.907C20.499 41.5017 22.8226 42.1471 24.0748 42.3666C24.0489 42.2117 24.0231 42.0568 23.9973 41.9019C23.9457 41.592 23.894 41.2951 23.8553 40.9853Z"
          fill="#DCDBDB"/>
    <path d="M31.2909 52.9384C33.1485 53.984 35.3313 54.6682 37.7182 54.6682H38.028C39.9514 54.6295 41.8361 54.1906 43.54 53.4548C43.9931 53.2741 44.4191 53.0675 44.8309 52.8481C47.5547 51.3765 49.6072 49.1432 50.2655 46.6389C50.4475 45.9031 50.6399 45.2706 50.8077 44.6639C51.0013 43.9797 51.1691 43.3472 51.324 42.7147C51.3757 42.5339 51.4273 42.3403 51.466 42.1596C51.5177 41.9143 51.5822 41.6561 51.6209 41.4109C51.9294 39.8231 52.0727 38.1837 52.0973 36.0666C52.1115 35.9247 52.1115 35.7827 52.1115 35.6407C52.0327 35.731 51.9566 35.7956 51.8662 35.8214C51.7629 35.8859 51.6467 35.9117 51.5177 35.9247H51.506C51.235 35.9247 51.0026 35.8214 50.8348 35.6407C50.8219 35.6278 50.8219 35.6278 50.8219 35.6148C50.2023 34.892 50.2926 32.7749 50.3171 32.3102C50.2655 32.0004 50.1881 31.8455 50.0977 31.6518C49.9428 31.342 49.7492 30.9548 49.6343 30.077L49.6072 29.8188C49.4394 28.5021 49.0134 24.9909 47.5418 24.2293C46.806 23.8549 45.4634 23.6484 43.7466 23.6484C43.3206 23.6484 42.8817 23.6613 42.4299 23.6871C42.3782 23.7 42.3266 23.7 42.2879 23.7C40.7905 23.7775 39.2285 24.0098 37.8214 24.3326C36.2595 24.7069 35.059 24.41 34.0134 24.0615C33.7694 23.9711 33.5099 23.8937 33.2388 23.8162C33.1872 23.8033 33.1485 23.7904 33.0968 23.7775C32.5547 23.6355 31.948 23.5322 31.1734 23.5322H31.1605C30.2711 23.5322 29.2758 23.6613 28.1011 23.9324C27.559 24.3068 26.4101 25.2878 26.4359 26.2302C26.463 27.0176 26.1003 30.7482 25.1592 31.7035C25.1321 31.9487 25.1321 32.5296 25.145 32.9298C25.1721 34.3756 25.1592 35.2921 24.7061 35.7568C24.6674 35.7956 24.6287 35.8343 24.577 35.8601C24.435 35.9763 24.2543 36.0279 24.0607 36.0279H24.0091C23.738 36.015 23.5056 35.9117 23.2991 35.7181C23.2991 35.7181 23.2862 35.731 23.2733 35.731C23.3752 36.9444 23.5443 38.9324 23.8529 40.9849C23.8916 41.2947 23.9432 41.5916 23.9949 41.9014C24.0207 42.0563 24.0465 42.2112 24.0723 42.3661H24.0865C24.5641 45.1028 25.1838 47.0262 25.9054 48.0718C26.8477 49.4531 28.2548 50.9376 30.0116 52.1381C30.1665 52.2543 30.3214 52.3575 30.4893 52.4608C30.7487 52.6286 31.0198 52.7835 31.2909 52.9384Z"
          fill="#DCDBDB"/>
    <g filter="url(#filter0_d_20_5414)">
        <circle cx="62" cy="62" r="13" fill="white"/>
    </g>
    <path fill-rule="evenodd" clip-rule="evenodd"
          d="M66.1026 70H58.9945L64.7069 63.5729C65.0695 63.1651 65.6882 63.1126 66.1141 63.4539L69.9754 66.5424C69.8761 67.4146 69.4847 68.2318 68.8587 68.8587C68.1276 69.5897 67.1364 70 66.1026 70ZM54 66.1026V64.0513L57.1819 61.6652C57.575 61.3698 58.1231 61.3961 58.4874 61.7268L61.9245 64.8513L57.3781 69.9655C56.5362 69.8523 55.7493 69.4658 55.1413 68.8587C54.4103 68.1276 54 67.1364 54 66.1026ZM69.5897 57.2673C69.7063 57.2501 69.8219 57.2189 69.9319 57.1737C69.977 57.4109 70 57.6529 70 57.8974V64.9867L66.8829 62.4931C65.9458 61.7424 64.5846 61.8581 63.7871 62.7557L62.7417 63.9315L59.3153 60.816C58.5145 60.0882 57.3091 60.0308 56.4435 60.6806L54 62.5128V57.8974C54 56.8636 54.4103 55.8724 55.1413 55.1413C55.8724 54.4103 56.8636 54 57.8974 54H66.1026C66.3019 54 66.4989 54.0156 66.6933 54.0451L65.9081 54.8312C65.3477 55.3916 65.3477 56.3007 65.9081 56.8611C66.1354 57.0892 66.4217 57.2246 66.7179 57.2673V58.3077C66.7179 59.1003 67.3612 59.7436 68.1538 59.7436C68.9465 59.7436 69.5897 59.1003 69.5897 58.3077V57.2673ZM61.1795 57.4872C61.1795 56.8078 60.6281 56.2564 59.9487 56.2564C59.2693 56.2564 58.7179 56.8078 58.7179 57.4872C58.7179 58.1666 59.2693 58.7179 59.9487 58.7179C60.6281 58.7179 61.1795 58.1666 61.1795 57.4872ZM66.4879 55.4111L67.7099 54.189C67.8219 54.0725 67.9793 54 68.1535 54C68.3286 54 68.4866 54.0732 68.5987 54.1906L69.8191 55.4111C70.0596 55.6507 70.0596 56.0412 69.8191 56.2808C69.5796 56.5212 69.189 56.5212 68.9494 56.2808L68.7689 56.1005V58.3077C68.7689 58.6474 68.4932 58.9231 68.1535 58.9231C67.8138 58.9231 67.5382 58.6474 67.5382 58.3077V56.1005L67.3576 56.2808C67.118 56.5212 66.7274 56.5212 66.4879 56.2808C66.2474 56.0412 66.2474 55.6507 66.4879 55.4111Z"
          fill="#EA3047"/>
    <defs>
        <filter id="filter0_d_20_5414" x="45" y="47" width="34" height="34" filterUnits="userSpaceOnUse"
                color-interpolation-filters="sRGB">
            <feFlood flood-opacity="0" result="BackgroundImageFix"/>
            <feColorMatrix in="SourceAlpha" type="matrix" values="0 0 0 0 0 0 0 0 0 0 0 0 0 0 0 0 0 0 127 0"
                           result="hardAlpha"/>
            <feOffset dy="2"/>
            <feGaussianBlur stdDeviation="2"/>
            <feComposite in2="hardAlpha" operator="out"/>
            <feColorMatrix type="matrix" values="0 0 0 0 0 0 0 0 0 0 0 0 0 0 0 0 0 0 0.08 0"/>
            <feBlend mode="normal" in2="BackgroundImageFix" result="effect1_dropShadow_20_5414"/>
            <feBlend mode="normal" in="SourceGraphic" in2="effect1_dropShadow_20_5414" result="shape"/>
        </filter>
    </defs>
</svg>