<svg xmlns="http://www.w3.org/2000/svg" width="24" height="24" viewBox="0 0 24 24" fill="none">
    <path d="M12.0469 0.000488281C5.45578 0.000488281 0 5.36252 0 11.9536C0 18.5447 5.45578 24.0005 12.0469 24.0005C18.638 24.0005 24 18.5447 24 11.9536C24 5.36252 18.638 0.000488281 12.0469 0.000488281ZM18.375 13.3599H13.4531V18.3755C13.4531 19.1508 12.8217 19.7817 12.0469 19.7817C11.2716 19.7817 10.6406 19.1508 10.6406 18.3755V13.3599H5.625C4.84969 13.3599 4.21875 12.7289 4.21875 11.9536C4.21875 11.1783 4.84969 10.5474 5.625 10.5474H10.6406V5.62549C10.6406 4.85018 11.2716 4.21924 12.0469 4.21924C12.8217 4.21924 13.4531 4.85018 13.4531 5.62549V10.5474H18.375C19.1498 10.5474 19.7812 11.1783 19.7812 11.9536C19.7812 12.7289 19.1498 13.3599 18.375 13.3599Z"
          fill="#EA3047"/>
</svg>